M48
;GenerationSoftware,Autodesk,EAGLE,9.6.0*%
;CreationDate,2020-05-16T10:01:33Z*%
FMAT,2
ICI,OFF
METRIC,TZ,000.000
T2C0.300
T1C0.350
%
G90
M71
T1
X11317Y50254
X13857Y50127
X4699Y33401
X4572Y53467
X4572Y51054
X4572Y48641
X12319Y25146
X18288Y11430
X6223Y20447
X6604Y15748
X23368Y10541
X19812Y50546
X16129Y36297
X11811Y19558
X15852Y40132
X17399Y24630
X17399Y23622
X15948Y23126
X10160Y24765
X8382Y30480
X12065Y20828
T2
X5317Y63135
X8111Y65929
X20193Y56490
M30