M48
;GenerationSoftware,Autodesk,EAGLE,9.6.0*%
;CreationDate,2020-05-16T10:01:33Z*%
FMAT,2
ICI,OFF
METRIC,TZ,000.000
T9C0.300
T8C0.350
T7C0.600
T6C0.650
T5C0.800
T4C0.850
T3C1.000
T2C1.016
T1C3.000
%
G90
M71
T1
X26000Y2000
X2000Y75500
X2000Y2000
X26000Y75500
T2
X25455Y54970
X2595Y6710
X21590Y38100
X21590Y35560
X21590Y33020
X25455Y52430
X25455Y70210
X25455Y67670
X25455Y65130
X25455Y62590
X25455Y60050
X25455Y57510
X21590Y30480
X25455Y49890
X25455Y47350
X25455Y44810
X25455Y42270
X25455Y39730
X25455Y37190
X25455Y34650
X25455Y32110
X25455Y29570
X25455Y27030
X25455Y24490
X25455Y21950
X25455Y19410
X25455Y16870
X25455Y14330
X25455Y11790
X25455Y9250
X25455Y6710
X2595Y39730
X2595Y70210
X2595Y67670
X2595Y65130
X2595Y62590
X2595Y60050
X2595Y57510
X2595Y54970
X2595Y52430
X2595Y49890
X2595Y47350
X2595Y44810
X2595Y42270
X2595Y37190
X2595Y34650
X2595Y32110
X2595Y29570
X2595Y27030
X2595Y24490
X2595Y21950
X2595Y19410
X2595Y16870
X2595Y14330
X2595Y11790
X2595Y9250
T3
X18605Y4700
X10605Y4700
T4
X18955Y6865
X10315Y6865
T5
X23114Y68453
X23114Y66548
T6
X17525Y6365
X11745Y6365
T7
X18955Y2685
X10315Y2685
T8
X17801Y61931
X20477Y66040
X21397Y28443
X11938Y48768
X19304Y49403
X11938Y47752
X19685Y48133
X12568Y34451
X21082Y19380
X23368Y27381
X19824Y42120
X20066Y31750
X13818Y47041
X23114Y45879
X10414Y27178
X17399Y30226
X10160Y29464
X10414Y23368
X9398Y29972
X12073Y21844
X21590Y25908
X21590Y24638
X21590Y23368
X16411Y28490
X16171Y30203
X10795Y57175
X15855Y9398
X8890Y36449
X10776Y35512
X17145Y36350
X12591Y30773
X7874Y32554
X14478Y6858
X17018Y10160
X4826Y70500
X8636Y70500
X9906Y70508
X18034Y70500
X19304Y70500
X20574Y70500
X23114Y70500
X18325Y66254
X7366Y70500
X6096Y70500
X21844Y70500
X22733Y7112
X5207Y7112
X12728Y9301
X16764Y38227
X11303Y31496
X6985Y18288
X24079Y23216
X21463Y16002
X15240Y16764
X17399Y31750
X17399Y34544
X10973Y55169
X4826Y60424
X9553Y57785
X7366Y57912
X7366Y37465
X4826Y55499
X4797Y56671
X6119Y58433
X4826Y57912
X4826Y59182
X9144Y60608
X13725Y58400
X13725Y57200
X12525Y57200
X12525Y58400
X12525Y59600
X12446Y40190
X13725Y60800
X13725Y59600
X14925Y57200
X14925Y58400
X14925Y59600
X14925Y60800
X16125Y60800
X16125Y59600
X16125Y58400
X16125Y57200
X14732Y53975
X7867Y53340
X7874Y51943
X15471Y53206
X11430Y11430
X15494Y11430
X10414Y16863
X19812Y16764
X18694Y61722
X19609Y61722
X20523Y61722
X23114Y41148
X10714Y34578
X20523Y60401
X19812Y17780
X23114Y28956
X20907Y40719
X5588Y18542
X18826Y58679
X7381Y36556
X7874Y50292
X21590Y21717
X21082Y12954
X19713Y45463
X16764Y40132
X6604Y19355
X18288Y10160
X9906Y9906
X19657Y46482
X9525Y27813
X11938Y45974
X18825Y50500
X10249Y61745
X7867Y54582
X21082Y18542
X12525Y60800
T9
X18034Y55093
M30