M48
;GenerationSoftware,Autodesk,EAGLE,9.6.0*%
;CreationDate,2020-05-16T10:01:33Z*%
FMAT,2
ICI,OFF
METRIC,TZ,000.000
T2C0.150
T1C0.350
%
G90
M71
T1
X17958Y46482
X14986Y46482
X10668Y19812
X16256Y46482
X11430Y13716
X15494Y13716
X17018Y19050
X18888Y57592
X17681Y40132
X18212Y48565
X19279Y55601
X23114Y21409
X18923Y56607
X9525Y26543
T2
X15825Y62000
X15325Y62000
X14825Y62000
X14326Y61874
X13792Y61849
X11325Y58000
X11328Y58496
X11325Y59000
X11325Y59500
X11328Y60000
X11325Y60500
X13325Y56500
X13843Y56515
X14325Y56500
X14825Y56500
X15325Y56500
X16825Y59500
X16825Y59000
X16825Y61000
X16825Y58500
X16825Y58000
X16825Y60500
X16825Y60000
X16325Y62000
M30