%
M48
M72
T01C0.00768
T02C0.00787
T03C0.03937
T04C0.08661
%
T01
X136490Y83187
X139857Y91602
X137612Y96091
X121904Y94969
X138734Y112764
X138734Y115323
X145467Y117409
X155565Y124142
X169030Y124142
X182494Y128630
X192593Y119654
X204374Y106189
X204374Y103945
X207740Y103945
X207740Y106189
X234109Y117129
X238597Y119093
X235231Y121898
X240280Y128069
X239719Y130874
X239719Y136484
X250378Y138448
X262160Y136905
X262160Y131996
X266087Y128069
X265526Y125825
X263961Y124142
X254305Y125264
X282918Y128069
X287406Y125825
X289650Y125264
X297504Y129191
X299748Y130874
X297925Y132978
X289369Y131155
X301151Y125264
X304797Y122459
X298065Y118531
X300169Y117269
X295821Y117409
X292455Y117409
X285723Y117409
X286003Y110958
X294699Y107311
X290211Y103945
X292455Y101701
X310969Y98615
X314615Y94688
X317140Y93846
X325555Y97213
X319384Y100579
X301431Y89358
X326677Y85431
X257391Y110677
X247012Y107311
X231303Y90480
X226254Y90480
X246451Y89358
X317701Y115726
X318262Y127508
X281796Y143778
X277868Y140131
X274502Y145461
X181372Y138728
X179689Y136484
X166786Y136484
X160614Y136484
X160614Y140972
X166786Y144339
X151077Y140972
X144345Y145461
X140418Y145461
X136490Y145461
X121904Y134240
T02
X156687Y66917
X160053Y66917
X163420Y66917
X166786Y66917
X170152Y66917
X170152Y70283
X166786Y70283
X163420Y70283
X160053Y70283
X156687Y70283
X156687Y75333
X160053Y75333
X166786Y75333
X170152Y75332
X182494Y81504
X182494Y85992
X182494Y90480
X182494Y93846
X186983Y93846
X186983Y90480
X191471Y90480
X191471Y93846
X182494Y98335
X182494Y102823
X163420Y106189
X151077Y107311
X139857Y107311
X132002Y93285
X132002Y84309
X207179Y85992
X208301Y89358
X210546Y97026
X213912Y97026
X211668Y102823
X211668Y106189
X211668Y109555
X229620Y105067
X238597Y94024
X246451Y84870
X263562Y85712
X262160Y92444
X270014Y100579
X261318Y104786
X283479Y102823
X286003Y97493
X295821Y101701
X301431Y101140
X315737Y107592
X317982Y108153
X319665Y109836
X321348Y107311
X327238Y107872
X327238Y105628
X327238Y103384
X327238Y101140
X328360Y99457
X330605Y99457
X332849Y99457
X335093Y99457
X337337Y94969
X341825Y94969
X331727Y94969
X327238Y94969
X330044Y91041
X335093Y91041
X340142Y91041
X341825Y87114
X337337Y87114
X331727Y87114
X330044Y83187
X334532Y83187
X339020Y83187
X300309Y85992
X293577Y89358
X278429Y83187
X296943Y79260
X302553Y108994
X315457Y114604
X317332Y113482
X320786Y112921
X321909Y117129
X324994Y116848
X327238Y116848
X327238Y114604
X327238Y112360
X327238Y110116
X330044Y116848
X332849Y116848
X335654Y116848
X341825Y121898
X339862Y124703
X336215Y125544
X337337Y128630
X341825Y128630
X332849Y128630
X332849Y125544
X327238Y125544
X327238Y128630
X322750Y128630
X323872Y125544
X319945Y125544
X317140Y125264
X317140Y123020
X314896Y123020
X304797Y119654
X301151Y123020
X297224Y123020
X291613Y122459
X286845Y130313
X282357Y130313
X270575Y133118
X267209Y130313
X269453Y122459
X266648Y119654
X269593Y118952
X263562Y119654
X253744Y121898
X251781Y119373
X244207Y119654
X232986Y121898
X218400Y136625
X218400Y141253
X216156Y146583
X202691Y143217
X194556Y143497
X182494Y149388
X182494Y152754
X172396Y151071
X173518Y143497
X180250Y129752
X166225Y129752
X129758Y120776
X107878Y134240
X119099Y139289
X123026Y139289
X127514Y139289
X127514Y135923
X127514Y143778
X133124Y158364
X137612Y158364
X142101Y158364
X146589Y158364
X261038Y142094
X267770Y138728
X271136Y138728
X281796Y136625
X296943Y143777
X303675Y143777
X316018Y140411
X318262Y136484
X316018Y134240
X319945Y132557
X317140Y129752
X324994Y132557
X330044Y132557
X335093Y132557
X340142Y132557
X341825Y136484
X337337Y136484
X332849Y136484
X335654Y140411
X340703Y140411
X322750Y136484
X287967Y147705
T03
X289974Y152764
X299974Y152764
X309974Y152764
X319974Y152764
X279974Y152764
X269974Y152764
X259974Y152764
X249974Y152764
X239974Y152764
X229974Y152764
X219974Y152764
X209974Y152764
X199974Y152764
X189974Y152764
X189974Y72764
X199974Y72764
X209974Y72764
X219974Y72764
X229974Y72764
X239974Y72764
X249974Y72764
X259974Y72764
X269974Y72764
X279974Y72764
X289974Y72764
X299974Y72764
X309974Y72764
X319974Y72764
T04
X336097Y72409
X336097Y153118
X111687Y153118
X111687Y72409
M30
